# xmcd CD database file
#
# Track frame offsets:
#	150
#	6063
#	23973
#	48205
#	59948
#	69909
#	72943
#	87243
#	101155
#	112903
#	125660
#	144919
#	157560
#	167581
#	172168
#
# Disc length: 2457 seconds
#
# Revision: 0
# Processed by: cddbd v1.5.2PL0 Copyright (c) Steve Scherf et al.
# Submitted via: CDex 1.51
#
DISCID=c409970f
DTITLE=Various Artist - Masters of the Cigar Box Guitar, Volume 3
DYEAR=2008
DGENRE=Blues
TTITLE0=Michael "Blind Dog" Gatewood/I Hear the Blues Callin' and the Devil is Near!
TTITLE1=Salty Dog/Death Letter Blues
TTITLE2=Gerry Thompson and Arthur Herrman/Worn Out Jenny
TTITLE3=Donald "Boz" Bostwick/Body in the Bed
TTITLE4=Slideshow Tramps/Gypsy Dance
TTITLE5=Russ Kenmer/Indian Summer
TTITLE6=Tomi-O (The New Age Hillbilly)/Bucktooth Holler
TTITLE7=Johnny Lowebow/I Got the Goat in Me
TTITLE8=Jeruselem Mules/Aught Rhody
TTITLE9=Buckeye/Fat Girl Stomp
TTITLE10=Bazookahosen/Ejes Bakken Af Norgen
TTITLE11=Bill "Jelly Belly" Jehle/The Urge
TTITLE12=Doctor Oakroot/Rushing to the Funeral
TTITLE13=Russ Kemner/Border Cross
TTITLE14=Lloyd "Madman" Madansky/Keep On Truckin'
EXTD=YEAR: 2008
EXTT0=
EXTT1=
EXTT2=
EXTT3=
EXTT4=
EXTT5=
EXTT6=
EXTT7=
EXTT8=
EXTT9=
EXTT10=
EXTT11=
EXTT12=
EXTT13=
EXTT14=
PLAYORDER=
